<svg id="f38ee091-c82c-4da1-851f-4c077abd9110" data-name="Layer 1" xmlns="http://www.w3.org/2000/svg" width="300" height="300" viewBox="0 0 1068 831.71426"><title>online wishes</title>
<path d="M1134,382.85713c0,45.83964-37.16037,119-83,119s-83-73.16036-83-119a83,83,0,1,1,166,0Z" transform="translate(-66 -34.14287)" fill="#35a2e2"/>
<path d="M1054.074,504.80854c-10.43048,3.59136-12.92756,17.81494-9.33986,28.24668s11.18624,19.08463,15.00958,29.43232a88.19944,88.19944,0,0,1,3.74052,16.04114c2.18414,12.981,4.37428,26.19026,2.69137,39.24565-1.59646,12.38466-6.614,24.06061-12.21177,35.22275a329.51138,329.51138,0,0,1-39.3229,60.69117" transform="translate(-66 -34.14287)" fill="none" stroke="#2f2e41" stroke-width="2"/>
<path d="M1059,509.85713q-8-5.13386-16,0v-16h16Z" transform="translate(-66 -34.14287)" fill="#35a2e2"/>
<path d="M1043.04193,501.51827a17.60008,17.60008,0,0,0,16.02856-.06574" transform="translate(-66 -34.14287)" fill="none" stroke="#2f2e41" stroke-width="2"/>
</svg>
